<svg width="209" height="77" viewBox="0 0 209 77" fill="none" xmlns="http://www.w3.org/2000/svg">
<path d="M98.3678 45.3507V55.6159H96V43.2368H105.098V45.3507H98.3678Z" fill="#202833"/>
<path d="M112.81 55.8525C111.93 55.8525 111.102 55.6836 110.323 55.3454C109.546 55.0071 108.867 54.5478 108.286 53.967C107.705 53.3863 107.246 52.7071 106.908 51.9292C106.57 51.1512 106.4 50.3169 106.4 49.4261C106.4 48.5467 106.57 47.7154 106.908 46.9316C107.246 46.1482 107.705 45.4663 108.286 44.8855C108.867 44.305 109.546 43.8454 110.323 43.5072C111.102 43.1689 111.93 43 112.81 43C113.7 43 114.535 43.1689 115.312 43.5072C116.091 43.8454 116.77 44.305 117.351 44.8855C117.931 45.4663 118.39 46.1482 118.729 46.9316C119.067 47.7154 119.236 48.5467 119.236 49.4261C119.236 50.3169 119.067 51.1512 118.729 51.9292C118.39 52.7071 117.931 53.3863 117.351 53.967C116.77 54.5478 116.091 55.0071 115.312 55.3454C114.535 55.6836 113.7 55.8525 112.81 55.8525ZM112.818 45.2154C112.256 45.2154 111.729 45.331 111.24 45.5619C110.751 45.7931 110.323 46.1004 109.957 46.4836C109.592 46.8669 109.302 47.3153 109.088 47.8283C108.875 48.3413 108.768 48.8739 108.768 49.4261C108.768 49.99 108.875 50.5254 109.088 51.0329C109.302 51.54 109.592 51.9883 109.957 52.3771C110.323 52.7663 110.751 53.0766 111.24 53.3075C111.729 53.5387 112.256 53.6539 112.818 53.6539C113.381 53.6539 113.906 53.5387 114.396 53.3075C114.885 53.0766 115.313 52.7663 115.678 52.3771C116.045 51.9883 116.334 51.54 116.548 51.0329C116.762 50.5254 116.868 49.99 116.868 49.4261C116.868 48.8739 116.762 48.3413 116.548 47.8283C116.334 47.3153 116.045 46.8669 115.678 46.4836C115.313 46.1004 114.885 45.7931 114.396 45.5619C113.906 45.331 113.381 45.2154 112.818 45.2154Z" fill="#202833"/>
<path d="M132.173 43.2368V55.6159H129.805V50.6947H123.7V55.6159H121.333V43.2368H123.7V48.5977H129.805V43.2368H132.173Z" fill="#202833"/>
<path d="M144.654 55.6158H142.287V50.9482C141.655 51.2864 140.95 51.4557 140.173 51.4557C139.372 51.4557 138.645 51.3315 137.991 51.0834C137.337 50.8357 136.779 50.4861 136.317 50.035C135.855 49.5843 135.497 49.0373 135.243 48.3945C134.989 47.7518 134.862 47.0362 134.862 46.2469V43.2535H137.23V46.2469C137.23 46.8669 137.331 47.3799 137.534 47.7859C137.737 48.1915 137.988 48.5129 138.287 48.7496C138.586 48.9863 138.907 49.1501 139.251 49.2403C139.595 49.3304 139.902 49.3755 140.173 49.3755C140.443 49.3755 140.75 49.3304 141.094 49.2403C141.438 49.1501 141.835 48.9977 142.287 48.7837V43.2535H144.654V55.6158Z" fill="#202833"/>
<path d="M145.837 55.6158L152.162 43.2535H152.399L158.724 55.6158H156.154L155.19 53.6711H149.355L148.408 55.6158H145.837ZM150.505 51.6078H154.04L152.281 47.8702L150.505 51.6078Z" fill="#202833"/>
<path d="M165.692 43.2368C166.3 43.2368 166.872 43.3524 167.408 43.5833C167.943 43.8145 168.408 44.1276 168.803 44.5219C169.198 44.9169 169.511 45.3817 169.742 45.9171C169.972 46.4528 170.089 47.025 170.089 47.6336C170.089 48.2426 169.987 48.8065 169.784 49.3247C169.581 49.8435 169.282 50.2974 168.888 50.6861C168.493 51.0753 167.994 51.3794 167.391 51.5993C166.788 51.8191 166.091 51.9293 165.303 51.9293H162.546V55.6159H160.178V43.2368H165.692ZM165.692 49.7985C166.041 49.7985 166.345 49.7393 166.605 49.6209C166.864 49.5026 167.075 49.3419 167.239 49.1389C167.402 48.9359 167.523 48.705 167.602 48.4456C167.681 48.1862 167.721 47.9157 167.721 47.6336C167.721 47.3522 167.67 47.0731 167.569 46.7965C167.467 46.5206 167.32 46.2752 167.129 46.0609C166.937 45.8469 166.7 45.6721 166.419 45.5365C166.137 45.4013 165.81 45.3339 165.438 45.3339H162.546V49.7985H165.692Z" fill="#202833"/>
<path d="M182.484 43.2368V55.6159H180.117V50.6947H174.012V55.6159H171.644V43.2368H174.012V48.5977H180.117V43.2368H182.484Z" fill="#202833"/>
<path d="M190.956 55.8525C190.077 55.8525 189.248 55.6836 188.47 55.3454C187.692 55.0071 187.013 54.5478 186.432 53.967C185.852 53.3863 185.393 52.7071 185.054 51.9292C184.716 51.1512 184.547 50.3169 184.547 49.4261C184.547 48.5467 184.716 47.7154 185.054 46.9316C185.393 46.1482 185.852 45.4663 186.432 44.8855C187.013 44.305 187.692 43.8454 188.47 43.5072C189.248 43.1689 190.077 43 190.956 43C191.847 43 192.681 43.1689 193.459 43.5072C194.237 43.8454 194.916 44.305 195.497 44.8855C196.077 45.4663 196.537 46.1482 196.875 46.9316C197.213 47.7154 197.383 48.5467 197.383 49.4261C197.383 50.3169 197.213 51.1512 196.875 51.9292C196.537 52.7071 196.077 53.3863 195.497 53.967C194.916 54.5478 194.237 55.0071 193.459 55.3454C192.681 55.6836 191.847 55.8525 190.956 55.8525ZM190.964 45.2154C190.402 45.2154 189.876 45.331 189.386 45.5619C188.897 45.7931 188.47 46.1004 188.104 46.4836C187.738 46.8669 187.449 47.3153 187.235 47.8283C187.021 48.3413 186.914 48.8739 186.914 49.4261C186.914 49.99 187.021 50.5254 187.235 51.0329C187.449 51.54 187.738 51.9883 188.104 52.3771C188.47 52.7663 188.897 53.0766 189.386 53.3075C189.876 53.5387 190.402 53.6539 190.964 53.6539C191.527 53.6539 192.053 53.5387 192.542 53.3075C193.031 53.0766 193.46 52.7663 193.825 52.3771C194.191 51.9883 194.48 51.54 194.694 51.0329C194.908 50.5254 195.015 49.99 195.015 49.4261C195.015 48.8739 194.908 48.3413 194.694 47.8283C194.48 47.3153 194.191 46.8669 193.825 46.4836C193.46 46.1004 193.031 45.7931 192.542 45.5619C192.053 45.331 191.527 45.2154 190.964 45.2154Z" fill="#202833"/>
<path d="M201.847 45.3339V48.4284H207.834V50.5764H201.847V53.4851H208.595V55.6159H199.479V43.2368H208.595V45.3339H201.847Z" fill="#202833"/>
<path d="M101.513 63.5302C102.122 63.5302 102.694 63.6458 103.229 63.8766C103.765 64.1078 104.23 64.4209 104.625 64.8152C105.019 65.2102 105.332 65.675 105.564 66.2104C105.794 66.7461 105.91 67.3183 105.91 67.9269C105.91 68.5359 105.809 69.0999 105.606 69.618C105.403 70.1369 105.104 70.5907 104.71 70.9795C104.315 71.3686 103.816 71.6728 103.213 71.8926C102.609 72.1125 101.913 72.2226 101.124 72.2226H98.3678V75.9092H96V63.5302H101.513ZM101.513 70.0918C101.863 70.0918 102.167 70.0326 102.426 69.9143C102.686 69.7959 102.897 69.6352 103.061 69.4322C103.224 69.2292 103.345 68.9984 103.424 68.7389C103.503 68.4795 103.543 68.2091 103.543 67.9269C103.543 67.6455 103.492 67.3665 103.39 67.0898C103.289 66.8139 103.142 66.5686 102.951 66.3542C102.759 66.1402 102.522 65.9654 102.241 65.8299C101.959 65.6947 101.632 65.6272 101.259 65.6272H98.3678V70.0918H101.513Z" fill="#202833"/>
<path d="M109.834 65.6272V68.7217H115.82V70.8697H109.834V73.7784H116.581V75.9092H107.466V63.5302H116.581V65.6272H109.834Z" fill="#202833"/>
<path d="M131.48 63.547V75.9092H129.112V69.6521L125.239 74.3028L121.384 69.6521V75.9092H119.016V63.547H119.168L125.239 70.6836L131.327 63.547H131.48Z" fill="#202833"/>
<path d="M136.57 65.6272V68.7217H142.556V70.8697H136.57V73.7784H143.318V75.9092H134.202V63.5302H143.318V65.6272H136.57Z" fill="#202833"/>
<path d="M157.083 72.8655C156.813 73.3617 156.48 73.8096 156.085 74.2098C155.69 74.6103 155.254 74.954 154.774 75.2413C154.295 75.5289 153.777 75.7519 153.219 75.9095C152.66 76.0671 152.083 76.1462 151.485 76.1462C150.606 76.1462 149.777 75.9773 149 75.639C148.221 75.3008 147.542 74.8415 146.961 74.2607C146.381 73.6799 145.922 73.0008 145.583 72.2228C145.245 71.4449 145.076 70.616 145.076 69.737C145.076 68.8575 145.245 68.0287 145.583 67.2508C145.922 66.4728 146.381 65.7936 146.961 65.2129C147.542 64.6324 148.221 64.1731 149 63.8345C149.777 63.4963 150.606 63.3274 151.485 63.3274C152.083 63.3274 152.66 63.4065 153.219 63.5641C153.777 63.722 154.295 63.9446 154.774 64.2323C155.254 64.5196 155.69 64.8636 156.085 65.2638C156.48 65.6639 156.813 66.1067 157.083 66.5912L154.868 67.4875C154.687 67.217 154.476 66.9635 154.234 66.7264C153.991 66.4897 153.723 66.2812 153.43 66.1009C153.137 65.9206 152.827 65.7795 152.5 65.678C152.173 65.5765 151.835 65.526 151.485 65.526C150.922 65.526 150.394 65.6416 149.904 65.8724C149.414 66.1036 148.988 66.4109 148.627 66.7942C148.266 67.1775 147.979 67.6258 147.765 68.1388C147.55 68.6518 147.444 69.1844 147.444 69.737C147.444 70.3005 147.55 70.8359 147.765 71.3434C147.979 71.8509 148.266 72.2961 148.627 72.6794C148.988 73.0627 149.414 73.3703 149.904 73.6011C150.394 73.8324 150.922 73.9476 151.485 73.9476C151.835 73.9476 152.173 73.897 152.5 73.7955C152.827 73.694 153.137 73.5533 153.43 73.3727C153.723 73.1924 153.991 72.9811 154.234 72.7386C154.476 72.4964 154.687 72.2397 154.868 71.9693L157.083 72.8655Z" fill="#202833"/>
<path d="M163.053 65.6441V71.2926C163.053 72.0141 162.942 72.6737 162.723 73.2709C162.503 73.8689 162.193 74.3788 161.793 74.8017C161.393 75.2242 160.91 75.5514 160.347 75.7823C159.783 76.0135 159.157 76.1291 158.47 76.1291V73.9814C158.954 73.9814 159.341 73.8858 159.628 73.6938C159.915 73.5022 160.138 73.2654 160.296 72.9837C160.454 72.7019 160.558 72.4087 160.609 72.1042C160.66 71.7997 160.685 71.5293 160.685 71.2926V63.5302H170.173V75.9092H167.822V65.6441H163.053Z" fill="#202833"/>
<path d="M178.662 76.1462C177.783 76.1462 176.954 75.9773 176.176 75.6391C175.398 75.3008 174.719 74.8415 174.138 74.2607C173.557 73.68 173.099 73.0008 172.76 72.2229C172.422 71.4449 172.253 70.6106 172.253 69.7198C172.253 68.8404 172.422 68.0091 172.76 67.2253C173.099 66.4419 173.557 65.76 174.138 65.1792C174.719 64.5987 175.398 64.1391 176.176 63.8009C176.954 63.4626 177.783 63.2937 178.662 63.2937C179.552 63.2937 180.387 63.4626 181.165 63.8009C181.943 64.1391 182.622 64.5987 183.203 65.1792C183.783 65.76 184.243 66.4419 184.581 67.2253C184.919 68.0091 185.088 68.8404 185.088 69.7198C185.088 70.6106 184.919 71.4449 184.581 72.2229C184.243 73.0008 183.783 73.68 183.203 74.2607C182.622 74.8415 181.943 75.3008 181.165 75.6391C180.387 75.9773 179.552 76.1462 178.662 76.1462ZM178.67 65.5091C178.108 65.5091 177.582 65.6247 177.092 65.8556C176.603 66.0868 176.176 66.3941 175.81 66.7773C175.444 67.1606 175.155 67.609 174.941 68.122C174.727 68.635 174.62 69.1676 174.62 69.7198C174.62 70.2837 174.727 70.8191 174.941 71.3266C175.155 71.8337 175.444 72.282 175.81 72.6708C176.176 73.06 176.603 73.3703 177.092 73.6012C177.582 73.8324 178.108 73.9476 178.67 73.9476C179.233 73.9476 179.759 73.8324 180.248 73.6012C180.737 73.3703 181.165 73.06 181.531 72.6708C181.897 72.282 182.186 71.8337 182.4 71.3266C182.614 70.8191 182.721 70.2837 182.721 69.7198C182.721 69.1676 182.614 68.635 182.4 68.122C182.186 67.609 181.897 67.1606 181.531 66.7773C181.165 66.3941 180.737 66.0868 180.248 65.8556C179.759 65.6247 179.233 65.5091 178.67 65.5091Z" fill="#202833"/>
<path d="M76 0H0V76H76V0Z" fill="black"/>
<path d="M76 38H21V76H76V38Z" fill="#E52329"/>
<path fill-rule="evenodd" clip-rule="evenodd" d="M55.9645 57H21V17H55.9645C67.0298 17 76 25.9543 76 37C76 48.0457 67.0298 57 55.9645 57Z" fill="#FAC18A"/>
<path fill-rule="evenodd" clip-rule="evenodd" d="M21 76V57H38L21 76Z" fill="#F5A057"/>
</svg>
